<svg xmlns="http://www.w3.org/2000/svg" viewBox="0 0 120 120"><clipPath id="a"><path d="M0 0h120v120H0Z" transform="matrix(1 0 0 -1 0 120)"/></clipPath><g clip-path="url(#a)"><path fill="#ff9a1f" fill-rule="evenodd" d="M59.511 7.156c-12.965 0-23.517 4.425-35.692 11.83V.999s-4.47 2.654-9.152 6.633c-5.512 4.685-10.63 10.812-10.63 10.812v44.374c0 30.885 25.664 56.181 56.55 56.181 1.694 0 3.49-.087 5.147-.236 3.34-1.499 8.308-4.519 10.938-10.024 2.36-4.937 2.963-10.746 3.088-13.96a36.186 36.186 0 0 1-17.92 4.726c-20.118 0-36.419-16.31-36.419-36.426 0-20.119 16.312-36.426 36.43-36.426 20.117 0 36.682 16.31 36.428 36.425-.035 2.737-.575 22.833-.512 32.501.026 4.005-.576 7.689-1.49 10.537 12.35-10.258 19.686-25.728 19.686-43.038 0-30.885-25.567-55.922-56.452-55.922M43.898 63.592c0 10.2 8.27 18.468 18.47 18.468s18.47-8.269 18.47-18.468c0-10.201-8.27-18.47-18.47-18.47s-18.47 8.269-18.47 18.47"/></g></svg>