<svg xmlns="http://www.w3.org/2000/svg" viewBox="0 0 125 73.684"><path fill="none" d="M3.799 12.302h115.313v51.525H3.799z"/><defs><filter id="a" width="43.108" height="43.108" x="9.706" y="16.663" filterUnits="userSpaceOnUse"><feColorMatrix values="1 0 0 0 0 0 1 0 0 0 0 0 1 0 0 0 0 0 1 0"/></filter></defs><mask id="c" width="43.108" height="43.108" x="9.706" y="16.663" maskUnits="userSpaceOnUse"><g filter="url(#a)"><radialGradient id="b" cx="31.26" cy="38.386" r="21.626" gradientUnits="userSpaceOnUse"><stop offset=".659" stop-color="#fff"/><stop offset=".664" stop-color="#f8f8f8"/><stop offset=".704" stop-color="#bfbfbf"/><stop offset=".745" stop-color="#8c8c8c"/><stop offset=".786" stop-color="#616161"/><stop offset=".828" stop-color="#3e3e3e"/><stop offset=".87" stop-color="#232323"/><stop offset=".912" stop-color="#0f0f0f"/><stop offset=".955" stop-color="#040404"/><stop offset="1"/></radialGradient><circle cx="31.26" cy="38.386" r="21.626" fill="url(#b)"/></g></mask><circle cx="31.26" cy="38.216" r="21.554" fill="#FFF" mask="url(#c)"/><defs><filter id="d" width="32.019" height="32.019" x="14.987" y="22.295" filterUnits="userSpaceOnUse"><feColorMatrix values="1 0 0 0 0 0 1 0 0 0 0 0 1 0 0 0 0 0 1 0"/></filter></defs><mask id="f" width="32.019" height="32.019" x="14.987" y="22.295" maskUnits="userSpaceOnUse"><g filter="url(#d)"><radialGradient id="e" cx="30.996" cy="38.431" r="15.575" gradientUnits="userSpaceOnUse"><stop offset=".945" stop-color="#fff"/><stop offset=".946" stop-color="#f8f8f8"/><stop offset=".95" stop-color="#c4c4c4"/><stop offset=".954" stop-color="#969696"/><stop offset=".959" stop-color="#6d6d6d"/><stop offset=".964" stop-color="#4b4b4b"/><stop offset=".969" stop-color="#303030"/><stop offset=".975" stop-color="#1b1b1b"/><stop offset=".981" stop-color="#0c0c0c"/><stop offset=".989" stop-color="#030303"/><stop offset="1"/></radialGradient><circle cx="30.996" cy="38.43" r="15.574" fill="url(#e)"/></g></mask><circle cx="30.996" cy="38.305" r="16.01" fill="#FFF" mask="url(#f)"/><path d="M103.57 20.872c1.692 0 3 1.226 3 2.847 0 1.623-1.308 2.85-3 2.85-1.693 0-2.922-1.347-2.922-2.85 0-1.502 1.229-2.847 2.922-2.847zM101.381 29.858h4.453v17.817h-4.453zM65.393 42.667c-1.049 1.104-2.395 1.89-4.326 1.89-2.488 0-4.493-1.599-4.791-4.231h13.586v-1.225c0-6.201-3.376-9.688-8.354-9.688-5.38 0-9.685 3.747-9.685 9.353 0 5.604 4.305 9.355 9.685 9.355 2.455 0 4.766-.763 6.695-2.644l-2.81-2.81zm-4.514-9.916c2.784 0 4.492 1.635 4.531 4.232h-9.134c.335-2.562 1.969-4.232 4.603-4.232zM76.075 34.869c0-1.337 1.411-1.894 2.601-1.894 1.512 0 2.623.625 3.476 1.804l2.833-2.83c-1.467-1.831-3.898-2.536-6.199-2.536-3.601 0-7.165 1.78-7.165 5.753 0 6.794 9.614 3.897 9.614 7.571 0 1.41-1.67 2.041-2.969 2.041-1.889 0-3.074-.922-4.223-2.18l-2.877 2.876c1.807 1.958 4.143 2.646 6.84 2.646 3.637 0 7.686-1.485 7.686-5.718-.001-6.941-9.617-4.341-9.617-7.533zM99.123 29.669c-.515-.146-1.031-.256-1.582-.256-2.341 0-4.309 1.224-5.274 3.263h-.071v-2.818h-4.454v17.817h4.454v-9.542c0-.964.592-4.491 4.788-4.491.646 0 1.289.128 1.966.29l.173-4.263zM109.292 29.769c.794 0 1.443.649 1.443 1.444a1.443 1.443 0 1 1-1.443-1.444zm0 2.63a1.186 1.186 0 1 0 .002-2.372 1.186 1.186 0 0 0-.002 2.372zm-.554-2.02h.635c.396 0 .581.178.581.497 0 .287-.168.425-.394.453l.43.697h-.318l-.411-.674h-.22v.674h-.303v-1.647zm.303.717h.22c.187 0 .394-.011.394-.234 0-.221-.207-.232-.394-.228h-.22v.462z"/><radialGradient id="g" cx="26.724" cy="35.9" r="9.784" gradientUnits="userSpaceOnUse"><stop offset="0" stop-color="#b9e0f7"/><stop offset="1" stop-color="#007ac2"/></radialGradient><circle cx="31.14" cy="38.459" r="13.797" fill="url(#g)"/><radialGradient id="h" cx="26.179" cy="36.036" r="12.004" gradientUnits="userSpaceOnUse"><stop offset="0" stop-color="#b2d235"/><stop offset=".961" stop-color="#009e46"/></radialGradient><path fill="url(#h)" d="M19.425 39.673c-.626-2.111.099-4.087 1.665-4.243 1.404-.141 2.609-2.23 3.6-3.601 2.035-2.817 5.165-2.347 5.008-3.756-.451-2.066-2.84-.531-4.382-.47-1.063.043-2.083.185-3.099.336a13.761 13.761 0 0 0-4.863 10.085c.813.857 1.887 2.794 3.125 3.914.165-.073.343-.135.532-.192-.608-.705-1.457-1.641-1.586-2.073z"/><radialGradient id="i" cx="29.213" cy="35.252" r="15.257" gradientUnits="userSpaceOnUse"><stop offset="0" stop-color="#b2d235"/><stop offset=".961" stop-color="#009e46"/></radialGradient><path fill="url(#i)" d="M28.916 47.325c.729-1.898 1.141-2.735.156-4.694-2.168-.612-2.825-.806-5.008-1.254-1.139-.232-1.18-.172-2.461.201-.204.059-.402.112-.591.169-.169.046-.302.112-.532.192-.506.227-.873.572-.958 1.312-.154 1.341 1.12 2.393 2.195 2.7 1.362.39 1.477-.065 2.191.9.5.675.596 1.928.852 2.752.143.461.335.919.566 1.368a13.72 13.72 0 0 0 3.088 1.015c.268-1.59.146-3.735.502-4.661z"/><radialGradient id="j" cx="30.332" cy="28.742" r="20.167" gradientUnits="userSpaceOnUse"><stop offset="0" stop-color="#b2d235"/><stop offset=".961" stop-color="#009e46"/></radialGradient><path fill="url(#j)" d="M44.921 37.842a13.758 13.758 0 0 0-4.525-9.614c-.248.069-.564.081-.995.003-2.869-.522-3.546 1.153-4.382 2.347-.639.912-2.88 1.163-3.6 2.19-.56.801.019 2.378-.469 3.287-.225.418-.122 1.634.153 2.031.864 1.257 2.298.559 3.377 1.011 1.316.55 1.467 2.076 2.56 3.195 1.093 1.119-1.396 2.842.636 6.91.218.438.471.758.742.977a13.868 13.868 0 0 0 3.58-3.214c.308-2.055-.386-2.713.482-4.593.536-1.16 1.452-3.167 2.441-4.53z"/><path d="M26.718 35.378c2.348-.997 4.893-1.794 8.324-2.083-.874-2.097-1.839-3.578-2.974-4.935-2.53.203-4.839.884-6.834 1.71.293 1.554.847 3.434 1.484 5.308zm10.945 5.782c-3.248-.039-6.083.738-8.021 1.691.821 1.769 2.445 4.111 3.052 5.076a16.716 16.716 0 0 1 3.071-.826c.881-.137 2.054-.266 2.85-.252-.143-2.058-.385-3.448-.952-5.689zm-8.608.511c2.596-1.193 5.445-1.73 8.315-1.652-.783-2.713-1.232-3.972-1.898-5.623-3.188.138-5.908.924-8.386 2.098-.001 0 .913 2.935 1.969 5.177zm9.977-13.095c-1.591-.289-3.912-.472-5.634-.368 1.174 1.626 2.035 3.042 2.843 5.06 2.178.053 5.138.704 6.352 1.18-.724-1.93-2.1-4.382-3.561-5.872zm4.95 12.824c-.098-1.793-.372-4.188-1.037-5.854-1.761-.708-4.167-1.149-6.28-1.169.652 1.52 1.41 4.061 1.78 5.695 1.527.183 3.914.615 5.537 1.328zm-1.454-12.535c-2.27-2.779-7.408-5.145-13.128-4.789 1.278.843 2.342 2.115 3.274 3.164 1.428-.131 4.428.105 5.556.417-.192-.227-.428-.453-.489-.586-.16-.345.225-.418.534-.221.391.25.843.549 1.2.914.665.148 2.296.707 3.053 1.101zm2.739 13.383c-.065.223-.457.446-.639.391.026.396-.065 2.364-.169 3.123.273-.562.795-1.954.952-2.543l.222-.865c.22-.736.933-3.277.287-6.62-.717-3.713-2.061-5.04-2.53-5.63-1.194-.649-3-1.238-3-1.238 1.637 2.217 2.204 3.26 3.183 5.898.568.295 1.598.866 1.727 1.022.104.124.104.346-.219.341-.269-.002-.791-.26-1.195-.367.43 1.438.763 4.123.738 5.922-.002-.001.708.343.643.566zm-2.087 5.465c.235-.235.587-.733.724-1.023.137-1.179.142-3.596.091-4.301-1.422-.577-3.62-1.033-5.224-1.151.522 1.915.783 4.732.822 5.65.77.078 2.714.472 3.587.825zm-3.652 3.239c1.245-.775 2.413-1.668 3.261-2.74-.73-.184-2.361-.405-3.169-.354 0 0-.026 1.939-.092 3.094zm-3.396 1.601c.618-.199 2.194-.914 2.522-1.13.078-1.271.065-2.714.013-3.578-1.657 0-3.991.484-5.328 1.045.776 1.249 1.846 2.625 2.793 3.663zm-7.448-1.087c.463.468 2.298 1.683 2.298 1.683 1.22.053 2.762-.091 3.864-.283-.607-.692-2.124-2.839-2.583-3.561-1.174.492-2.66 1.398-3.579 2.161zm-5.016-5.108c1.167 1.497 2.994 3.397 4.267 4.447 1.204-.968 2.568-1.872 3.703-2.423-.979-1.519-2.426-3.724-3.033-5.079-2.172.963-3.404 1.77-4.937 3.055zm-3.104-6.004c.743 2.122 1.462 3.741 2.401 5.077 1.098-.955 3.351-2.463 5.072-3.288-.567-1.219-1.386-3.498-1.957-5.205-2.216 1.089-3.872 2.15-5.516 3.416zm-1.78-6.371c.177 1.221.763 3.854 1.291 5.19 1.252-.943 4.089-2.693 5.693-3.401-.561-2.045-.939-3.336-1.252-5.4-2.269 1.009-4.669 2.577-5.732 3.611zm-.275-4.35c-.079.616.003 1.752.157 3.111 1.252-1.12 3.672-2.582 5.693-3.473-.234-1.541-.482-3.999-.457-4.653-1.871 1.027-3.923 3.09-5.427 5.205m6.12-6.414c2.688-1.113 5.306-1.724 8.328-1.311.336.046.308.331-.05.333l-.426.011c-2.434.038-6.014.812-7.866 1.86-.039 1.235.195 3.198.443 4.745 1.683-.708 4.285-1.435 6.261-1.651-1.122-1.193-2.647-2.32-2.83-2.451-.183-.131-.274-.354-.274-.643.026-.538.489-.604.736-.541.823-.16 1.641-.339 3.033-.297 5.888-.257 11.267 3.073 13.319 6.87 5.201 8.225.001 19.572-6.808 22.594-2.912 1.293-5.41 1.85-10.014 1.208-4.613-.645-8.384-2.899-11.313-7.64-3.608-5.841-1.577-12.646-1.07-14.073 2.172-5.121 5.733-7.835 8.531-9.014zm-6.946 10.122c-.059-.884-.129-2.097-.129-2.097-.65 1.415-1.039 2.266-1.22 3.918.455-.807 1.349-1.821 1.349-1.821zm9.501 17.931c-.979-.73-3.401-3.027-4.405-4.412-.369.217-.78.808-1.314.91-.21.04-.681.097-.821.04-.139-.059.032-.354.183-.551a6.56 6.56 0 0 1 1.2-1.216c-1.193-1.75-1.761-3.028-2.572-5.138-.469.293-.81.554-1.22.88-.138.108-.517.177-.701.012-.334-.3-.339-.827.13-1.161.192-.138 1.147-.797 1.369-.982-.587-1.692-1.077-3.916-1.208-5.069-.391.34-.941.727-1.096.833-.222.063-.371-.008-.435-.019-.224 2.393.034 5.027.746 7.406 1.223 4.092 4.653 7.992 9.282 9.443.108-.162.641-.778.862-.976zm2.413 1.639c-.457-.262-1.03-.668-1.565-1.022-.222.196-.401.484-.578.716.613.209 1.439.227 2.143.306z"/></svg>